HIERARCHY
ROOT Hips
{
	OFFSET 0.000000 0.000000 0.000000
	CHANNELS 6 Xposition Yposition Zposition Zrotation Yrotation Xrotation 
	JOINT LowerBack
	{
		OFFSET 0.000000 0.000000 0.000000
		CHANNELS 3 Zrotation Yrotation Xrotation
		JOINT Spine
		{
			OFFSET 0.028270 2.035590 -0.193380
			CHANNELS 3 Zrotation Yrotation Xrotation
			JOINT Spine1
			{
				OFFSET 0.056720 2.048850 -0.042750
				CHANNELS 3 Zrotation Yrotation Xrotation
				JOINT Neck
				{
					OFFSET 0.000000 0.000000 0.000000
					CHANNELS 3 Zrotation Yrotation Xrotation
					JOINT Neck1
					{
						OFFSET -0.054170 1.746240 0.172020
						CHANNELS 3 Zrotation Yrotation Xrotation
						JOINT Head
						{
							OFFSET 0.104070 1.761360 -0.123970
							CHANNELS 3 Zrotation Yrotation Xrotation
							End Site
							{
								OFFSET 0.000000 0.000000 0.000000
							}
						}
					}
				}
				JOINT LeftShoulder
				{
					OFFSET 0.000000 0.000000 0.000000
					CHANNELS 3 Zrotation Yrotation Xrotation
					JOINT LeftArm
					{
						OFFSET 3.362410 1.200890 -0.311210
						CHANNELS 3 Zrotation Yrotation Xrotation
						JOINT LeftForeArm
						{
							OFFSET 4.983000 -0.000000 -0.000000
							CHANNELS 3 Zrotation Yrotation Xrotation
							JOINT LeftHand
							{
								OFFSET 3.483560 -0.000000 -0.000000
								CHANNELS 3 Zrotation Yrotation Xrotation
								JOINT LeftFingerBase
								{
									OFFSET 0.000000 0.000000 0.000000
									CHANNELS 3 Zrotation Yrotation Xrotation
									JOINT LeftHandIndex1
									{
										OFFSET 0.715260 -0.000000 -0.000000
										CHANNELS 3 Zrotation Yrotation Xrotation
										End Site
										{
											OFFSET 0.000000 0.000000 0.000000
										}
									}
								}
								JOINT LThumb
								{
									OFFSET 0.000000 0.000000 0.000000
									CHANNELS 3 Zrotation Yrotation Xrotation
									End Site
									{
										OFFSET 0.000000 0.000000 0.000000
									}
								}
							}
						}
					}
				}
				JOINT RightShoulder
				{
					OFFSET 0.000000 0.000000 0.000000
					CHANNELS 3 Zrotation Yrotation Xrotation
					JOINT RightArm
					{
						OFFSET -3.136600 1.374050 -0.404650
						CHANNELS 3 Zrotation Yrotation Xrotation
						JOINT RightForeArm
						{
							OFFSET -5.241900 -0.000000 -0.000000
							CHANNELS 3 Zrotation Yrotation Xrotation
							JOINT RightHand
							{
								OFFSET -3.444170 -0.000000 -0.000000
								CHANNELS 3 Zrotation Yrotation Xrotation
								JOINT RightFingerBase
								{
									OFFSET 0.000000 0.000000 0.000000
									CHANNELS 3 Zrotation Yrotation Xrotation
									JOINT RightHandIndex1
									{
										OFFSET -0.622530 -0.000000 -0.000000
										CHANNELS 3 Zrotation Yrotation Xrotation
										End Site
										{
											OFFSET 0.000000 0.000000 0.000000
										}
									}
								}
								JOINT RThumb
								{
									OFFSET 0.000000 0.000000 0.000000
									CHANNELS 3 Zrotation Yrotation Xrotation
									End Site
									{
										OFFSET 0.000000 0.000000 0.000000
									}
								}
							}
						}
					}
				}
			}
		}
	}
}
}
MOTION
Frames: 18
Frame Time: 0.008333
-5.017231 17.055698 -1.509725 6.659782 -80.905333 -5.910822 -3.802271 -3.001838 -6.093517 -1.307485 -2.863996 -3.371867 -5.465045 -2.908329 2.620057 10.913829 -19.793943 -9.866002 -1.526233 -0.089245 -0.514940 0.000000 0.000000 0.000000 2.718277 15.525380 1.643077 -38.195433 8.317334 7.732110 -2.582362 -50.035117 -0.015392 -8.276629 7.547361 -0.543320 -0.086039 -0.036622 -0.000000 0.000000 0.000000 0.000000 0.000000 0.000000 0.000000 13.092767 -15.603614 -0.298480 50.618096 4.486501 3.401255 1.699137 49.872737 0.002069 -2.390082 3.202499 -0.071866 0.106300 -0.137637 -0.000000 0.000000 0.000000 0.000000 0.000000 0.000000 0.000000 
-5.013351 17.051603 -1.528512 7.023039 -81.169286 -6.393321 -3.768734 -3.049770 -6.038476 -1.293895 -2.914365 -3.364315 -5.456056 -2.957886 2.615367 10.990852 -19.991045 -9.906409 -1.527105 -0.088942 -0.524316 0.000000 0.000000 0.000000 2.783178 15.493909 1.603043 -38.945287 8.916459 7.771959 -2.703208 -48.788097 -0.016800 -8.401107 7.587911 -0.554739 -0.090118 -0.041415 -0.000000 0.000000 0.000000 0.000000 0.000000 0.000000 0.000000 13.220494 -15.857371 -0.314284 51.497756 3.826073 3.384683 1.786606 48.968335 0.002793 -2.278103 3.301553 -0.070568 0.107803 -0.132983 -0.000000 0.000000 0.000000 0.000000 0.000000 0.000000 0.000000 
-5.009268 17.047006 -1.547144 7.430505 -81.446555 -6.934692 -3.735633 -3.093145 -5.974138 -1.280291 -2.960052 -3.356131 -5.443988 -3.002776 2.606515 11.062034 -20.184890 -9.946293 -1.527116 -0.088577 -0.533560 0.000000 0.000000 0.000000 2.854856 15.462179 1.558721 -39.725375 9.539022 7.736292 -2.822985 -47.534696 -0.018114 -8.475344 7.612458 -0.561557 -0.094449 -0.045617 -0.000000 0.000000 0.000000 0.000000 0.000000 0.000000 0.000000 13.336957 -16.105380 -0.327554 52.356616 3.139435 3.354633 1.872565 48.077649 0.003448 -2.173844 3.385265 -0.069068 0.109285 -0.128370 -0.000000 0.000000 0.000000 0.000000 0.000000 0.000000 0.000000 
-5.005157 17.041943 -1.565349 7.874892 -81.740819 -7.526219 -3.699007 -3.131502 -5.903332 -1.265746 -3.000919 -3.347360 -5.428325 -3.042844 2.595682 11.128675 -20.382995 -9.987962 -1.525865 -0.088079 -0.543294 0.000000 0.000000 0.000000 2.932121 15.441362 1.509615 -40.535053 10.175127 7.634626 -2.940803 -46.273589 -0.019317 -8.491731 7.622773 -0.563374 -0.099020 -0.049253 -0.000000 0.000000 0.000000 0.000000 0.000000 0.000000 0.000000 13.446125 -16.355742 -0.338291 53.181939 2.443320 3.331076 1.956393 47.201661 0.004026 -2.082250 3.447999 -0.067473 0.110798 -0.123734 -0.000000 0.000000 0.000000 0.000000 0.000000 0.000000 0.000000 
-5.001063 17.036430 -1.583032 8.354518 -82.056896 -8.165267 -3.655764 -3.164786 -5.829058 -1.249638 -3.037182 -3.338741 -5.409203 -3.078345 2.582409 11.190496 -20.582933 -10.030326 -1.523621 -0.087493 -0.553198 0.000000 0.000000 0.000000 3.012161 15.431926 1.455859 -41.369704 10.834971 7.472019 -3.055522 -45.014572 -0.020406 -8.449516 7.622664 -0.560491 -0.103780 -0.052421 -0.000000 0.000000 0.000000 0.000000 0.000000 0.000000 0.000000 13.548655 -16.605590 -0.346589 53.966255 1.739005 3.327619 2.037317 46.345751 0.004514 -2.007001 3.488180 -0.065778 0.112363 -0.119052 -0.000000 0.000000 0.000000 0.000000 0.000000 0.000000 0.000000 
-4.997168 17.030563 -1.600097 8.865044 -82.397322 -8.846034 -3.603293 -3.193682 -5.754073 -1.231364 -3.069752 -3.330714 -5.386692 -3.110214 2.567013 11.247840 -20.784380 -10.072852 -1.520614 -0.086853 -0.563109 0.000000 0.000000 0.000000 3.092554 15.436404 1.397548 -42.226189 11.526726 7.253548 -3.166060 -43.767856 -0.021387 -8.350034 7.616739 -0.553207 -0.108663 -0.055212 -0.000000 0.000000 0.000000 0.000000 0.000000 0.000000 0.000000 13.646577 -16.854679 -0.352662 54.701709 1.032609 3.358419 2.114980 45.514518 0.004920 -1.944043 3.503948 -0.064085 0.113934 -0.114282 -0.000000 0.000000 0.000000 0.000000 0.000000 0.000000 0.000000 
-4.993531 17.024446 -1.616572 9.410000 -82.764304 -9.570703 -3.540741 -3.219719 -5.680294 -1.210606 -3.100232 -3.323302 -5.360737 -3.140072 2.550534 11.301644 -20.989364 -10.115328 -1.516912 -0.086166 -0.572961 0.000000 0.000000 0.000000 3.172386 15.458652 1.334762 -43.101756 12.257531 6.984689 -3.271480 -42.543610 -0.022267 -8.197696 7.609307 -0.542324 -0.113583 -0.057718 -0.000000 0.000000 0.000000 0.000000 0.000000 0.000000 0.000000 13.742846 -17.105862 -0.356975 55.381230 0.335320 3.439011 2.189386 44.710138 0.005256 -1.884550 3.495143 -0.061993 0.115438 -0.109385 -0.000000 0.000000 0.000000 0.000000 0.000000 0.000000 0.000000 
-4.990069 17.018159 -1.632583 9.996706 -83.158470 -10.347949 -3.468819 -3.244925 -5.608280 -1.187432 -3.130603 -3.316370 -5.331650 -3.169905 2.533250 11.353251 -21.197916 -10.156968 -1.512959 -0.085485 -0.582551 0.000000 0.000000 0.000000 3.251503 15.499244 1.267683 -43.995097 13.038846 6.667581 -3.370947 -41.354385 -0.023057 -7.999406 7.603983 -0.528441 -0.118445 -0.060025 -0.000000 0.000000 0.000000 0.000000 0.000000 0.000000 0.000000 13.841462 -17.359710 -0.360061 55.999837 -0.344464 3.579367 2.260744 43.936996 0.005544 -1.813159 3.462686 -0.059204 0.116735 -0.104338 -0.000000 0.000000 0.000000 0.000000 0.000000 0.000000 0.000000 
-4.986793 17.011823 -1.648358 10.643786 -83.578941 -11.196958 -3.390012 -3.271675 -5.537161 -1.162234 -3.163044 -3.309092 -5.299597 -3.201866 2.516838 11.404835 -21.412710 -10.198201 -1.508958 -0.084814 -0.592026 0.000000 0.000000 0.000000 3.332206 15.564639 1.196619 -44.906955 13.871918 6.306233 -3.464156 -40.206637 -0.023757 -7.762881 7.602115 -0.512260 -0.123167 -0.062184 -0.000000 0.000000 0.000000 0.000000 0.000000 0.000000 0.000000 13.947925 -17.620022 -0.362860 56.552139 -0.994401 3.787273 2.329414 43.201046 0.005802 -1.709347 3.406106 -0.055016 0.117652 -0.099110 -0.000000 0.000000 0.000000 0.000000 0.000000 0.000000 0.000000 
-4.983577 17.005542 -1.664264 11.397359 -84.024090 -12.164443 -3.309695 -3.303067 -5.466415 -1.136101 -3.200242 -3.301684 -5.265507 -3.238687 2.498962 11.456824 -21.628182 -10.235742 -1.506093 -0.084309 -0.600478 0.000000 0.000000 0.000000 3.413690 15.639465 1.122015 -45.837491 14.792402 5.883719 -3.551021 -39.122436 -0.024390 -7.503920 7.604103 -0.494778 -0.127648 -0.064295 -0.000000 0.000000 0.000000 0.000000 0.000000 0.000000 0.000000 14.064448 -17.881491 -0.365527 57.038387 -1.614696 4.062223 2.395696 42.508917 0.006061 -1.559236 3.338010 -0.049331 0.118066 -0.093794 -0.000000 0.000000 0.000000 0.000000 0.000000 0.000000 0.000000 
-4.980291 16.999414 -1.680582 12.303166 -84.491188 -13.299362 -3.231723 -3.341151 -5.392217 -1.109736 -3.243910 -3.292266 -5.229457 -3.281989 2.482842 11.512414 -21.850599 -10.272597 -1.504345 -0.083910 -0.608810 0.000000 0.000000 0.000000 3.500864 15.739347 1.044512 -46.791481 15.779861 5.405905 -3.632346 -38.093718 -0.024940 -7.228992 7.605380 -0.476199 -0.131857 -0.066324 -0.000000 0.000000 0.000000 0.000000 0.000000 0.000000 0.000000 14.199146 -18.151604 -0.369553 57.453227 -2.189947 4.404502 2.459775 41.871288 0.006322 -1.339823 3.253429 -0.041648 0.117781 -0.088360 -0.000000 0.000000 0.000000 0.000000 0.000000 0.000000 0.000000 
-4.976626 16.993522 -1.697671 13.438820 -84.976734 -14.683361 -3.161581 -3.388133 -5.311599 -1.084255 -3.295789 -3.280138 -5.192033 -3.333504 2.467699 11.572231 -22.078372 -10.308381 -1.504410 -0.083679 -0.616959 0.000000 0.000000 0.000000 3.594284 15.859581 0.964955 -47.772957 16.844333 4.858700 -3.709216 -37.125210 -0.025404 -6.951756 7.600737 -0.457221 -0.135751 -0.068280 -0.000000 0.000000 0.000000 0.000000 0.000000 0.000000 0.000000 14.355121 -18.428915 -0.375621 57.796973 -2.717259 4.806982 2.521459 41.298333 0.006587 -1.041205 3.159471 -0.031968 0.116701 -0.082897 -0.000000 0.000000 0.000000 0.000000 0.000000 0.000000 0.000000 
-4.972404 16.987955 -1.715816 14.904819 -85.476326 -16.419883 -3.102550 -3.445476 -5.221025 -1.060263 -3.357022 -3.264180 -5.153483 -3.394340 2.454206 11.636614 -22.311118 -10.344642 -1.506609 -0.083612 -0.625411 0.000000 0.000000 0.000000 3.694624 16.004936 0.884654 -48.787460 17.975823 4.232808 -3.783365 -36.208377 -0.025771 -6.682415 7.582023 -0.437842 -0.139332 -0.070112 -0.000000 0.000000 0.000000 0.000000 0.000000 0.000000 0.000000 14.535079 -18.713185 -0.384881 58.070627 -3.194393 5.257103 2.580190 40.802509 0.006848 -0.658642 3.058569 -0.020391 0.114764 -0.077475 -0.000000 0.000000 0.000000 0.000000 0.000000 0.000000 0.000000 
-4.967437 16.982740 -1.735174 16.821333 -85.984113 -18.631838 -3.055747 -3.513886 -5.117517 -1.037830 -3.428145 -3.243544 -5.113769 -3.465035 2.442664 11.704384 -22.547944 -10.383275 -1.510922 -0.083674 -0.634747 0.000000 0.000000 0.000000 3.800230 16.179177 0.805349 -49.839475 19.159793 3.517187 -3.856726 -35.330893 -0.026026 -6.429901 7.541208 -0.418564 -0.142626 -0.071751 -0.000000 0.000000 0.000000 0.000000 0.000000 0.000000 0.000000 14.738215 -19.003317 -0.398270 58.276773 -3.621414 5.739793 2.635006 40.394726 0.007085 -0.197915 2.953042 -0.007416 0.111988 -0.072175 -0.000000 0.000000 0.000000 0.000000 0.000000 0.000000 0.000000 
-4.961558 16.977905 -1.755758 19.331494 -86.491434 -21.464431 -3.019705 -3.593756 -4.998696 -1.016281 -3.509579 -3.217748 -5.072523 -3.546062 2.432678 11.772662 -22.787579 -10.426230 -1.517102 -0.083811 -0.645551 0.000000 0.000000 0.000000 3.904995 16.383013 0.729069 -50.932520 20.381729 2.697882 -3.931254 -34.479484 -0.026161 -6.201461 7.472257 -0.399584 -0.145680 -0.073127 -0.000000 0.000000 0.000000 0.000000 0.000000 0.000000 0.000000 14.960234 -19.297685 -0.416456 58.419751 -4.001565 6.238012 2.684560 40.083455 0.007272 0.323192 2.844705 0.006256 0.108492 -0.067085 -0.000000 0.000000 0.000000 0.000000 0.000000 0.000000 0.000000 
-4.954626 16.973479 -1.777432 22.592951 -86.985489 -25.076448 -2.991063 -3.685494 -4.862321 -0.994222 -3.601919 -3.186124 -5.028843 -3.638133 2.425002 11.837837 -23.027776 -10.476628 -1.524390 -0.083904 -0.658752 0.000000 0.000000 0.000000 4.003258 16.625141 0.658659 -52.068445 21.607243 1.769744 -4.008867 -33.629080 -0.026163 -5.998672 7.369886 -0.380805 -0.148568 -0.074126 -0.000000 0.000000 0.000000 0.000000 0.000000 0.000000 0.000000 15.194553 -19.593963 -0.440767 58.506875 -4.340907 6.729813 2.727124 39.874361 0.007387 0.878548 2.734378 0.019627 0.104443 -0.062290 -0.000000 0.000000 0.000000 0.000000 0.000000 0.000000 0.000000 
-4.946518 16.969410 -1.799873 26.765122 -87.447290 -29.630142 -2.968127 -3.789682 -4.704657 -0.970165 -3.705819 -3.147522 -4.981080 -3.742110 2.421245 11.896105 -23.268702 -10.538661 -1.531232 -0.083740 -0.675603 0.000000 0.000000 0.000000 4.089669 16.918817 0.597369 -53.246176 22.787637 0.737041 -4.090980 -32.746303 -0.026019 -5.816229 7.232115 -0.361823 -0.151384 -0.074629 -0.000000 0.000000 0.000000 0.000000 0.000000 0.000000 0.000000 15.432466 -19.892928 -0.472864 58.546159 -4.641921 7.200329 2.760547 39.765199 0.007422 1.430209 2.627254 0.031896 0.100096 -0.057893 -0.000000 0.000000 0.000000 0.000000 0.000000 0.000000 0.000000 
-4.937218 16.965742 -1.822714 31.982846 -87.852475 -35.253643 -2.952471 -3.908627 -4.531346 -0.942970 -3.823600 -3.104357 -4.928797 -3.860737 2.415905 11.940492 -23.497716 -10.609204 -1.538222 -0.083433 -0.695202 0.000000 0.000000 0.000000 4.142749 17.234817 0.547620 -54.457670 23.941019 -0.434565 -4.178354 -31.841720 -0.025768 -5.659593 7.067621 -0.343740 -0.154195 -0.074653 -0.000000 0.000000 0.000000 0.000000 0.000000 0.000000 0.000000 15.660693 -20.180944 -0.511851 58.552978 -4.931987 7.610538 2.783556 39.756788 0.007370 1.943845 2.521245 0.042166 0.095723 -0.053988 -0.000000 0.000000 0.000000 0.000000 0.000000 0.000000 0.000000 
